<svg width="11" height="13" viewBox="0 0 11 13" fill="none" xmlns="http://www.w3.org/2000/svg">
<path d="M6.71467 1.63242L7.23102 0.70089C7.23764 0.688939 7.24185 0.6758 7.2434 0.662224C7.24495 0.648647 7.2438 0.634899 7.24004 0.621764C7.23627 0.608628 7.22996 0.596364 7.22145 0.585669C7.21294 0.574975 7.20242 0.566061 7.19046 0.559436C7.16633 0.546055 7.13787 0.542811 7.11134 0.550416C7.08481 0.558022 7.06239 0.575854 7.04901 0.59999L6.52694 1.54184C6.0815 1.34657 5.60042 1.24575 5.11405 1.24575C4.62769 1.24575 4.1466 1.34657 3.70116 1.54184L3.17908 0.59999C3.1657 0.575854 3.14328 0.558022 3.11675 0.550416C3.09022 0.542811 3.06176 0.546055 3.03762 0.559436C3.01349 0.572816 2.99565 0.595236 2.98805 0.621764C2.98044 0.648292 2.98369 0.676754 2.99707 0.70089L3.51343 1.63243C3.02191 1.87471 2.60661 2.24768 2.31308 2.71043C2.01955 3.17317 1.85914 3.70782 1.84943 4.25572H8.37868C8.36897 3.70782 8.20856 3.17317 7.91503 2.71042C7.6215 2.24767 7.20619 1.8747 6.71467 1.63242ZM3.60727 3.06104C3.55335 3.06104 3.50063 3.04505 3.4558 3.01509C3.41096 2.98513 3.37602 2.94255 3.35538 2.89273C3.33475 2.84291 3.32935 2.78809 3.33987 2.73521C3.35039 2.68232 3.37635 2.63374 3.41448 2.59561C3.45261 2.55748 3.50119 2.53152 3.55408 2.521C3.60697 2.51048 3.66178 2.51587 3.7116 2.53651C3.76142 2.55715 3.804 2.59209 3.83396 2.63693C3.86392 2.68176 3.87991 2.73447 3.87991 2.7884C3.87983 2.86068 3.85108 2.92998 3.79996 2.98109C3.74885 3.0322 3.67955 3.06096 3.60727 3.06104ZM6.62082 3.06104C6.5669 3.06104 6.51418 3.04505 6.46935 3.01509C6.42451 2.98513 6.38957 2.94255 6.36893 2.89273C6.3483 2.84291 6.3429 2.78809 6.35342 2.73521C6.36394 2.68232 6.3899 2.63374 6.42803 2.59561C6.46616 2.55748 6.51474 2.53152 6.56763 2.521C6.62052 2.51048 6.67533 2.51587 6.72515 2.53651C6.77497 2.55715 6.81755 2.59209 6.84751 2.63693C6.87747 2.68176 6.89346 2.73447 6.89346 2.7884C6.89338 2.86068 6.86463 2.92998 6.81351 2.98109C6.7624 3.0322 6.6931 3.06096 6.62082 3.06104ZM1.84938 9.246C1.84938 9.45532 1.93253 9.65607 2.08055 9.80409C2.22856 9.9521 2.42931 10.0353 2.63864 10.0353H3.1624V11.6497C3.16214 11.7459 3.18088 11.8413 3.21754 11.9303C3.2542 12.0194 3.30807 12.1003 3.37606 12.1685C3.44404 12.2366 3.52481 12.2907 3.61374 12.3276C3.70266 12.3645 3.798 12.3835 3.89427 12.3835C3.99055 12.3835 4.08589 12.3645 4.17481 12.3276C4.26373 12.2907 4.3445 12.2366 4.41249 12.1685C4.48048 12.1003 4.53435 12.0194 4.57101 11.9303C4.60767 11.8413 4.62641 11.7459 4.62615 11.6497V10.0353H5.60194V11.6497C5.60168 11.7459 5.62041 11.8413 5.65708 11.9303C5.69374 12.0194 5.74761 12.1003 5.8156 12.1685C5.88358 12.2366 5.96435 12.2907 6.05328 12.3276C6.1422 12.3645 6.23753 12.3835 6.33381 12.3835C6.43009 12.3835 6.52542 12.3645 6.61435 12.3276C6.70327 12.2907 6.78404 12.2366 6.85203 12.1685C6.92002 12.1003 6.97388 12.0194 7.01055 11.9303C7.04721 11.8413 7.06595 11.7459 7.06569 11.6497V10.0353H7.58947C7.79879 10.0353 7.99955 9.9521 8.14756 9.80409C8.29558 9.65607 8.37873 9.45532 8.37873 9.246V4.514H1.84938V9.246ZM0.84485 4.38843C0.650813 4.38865 0.464786 4.46583 0.327581 4.60304C0.190376 4.74024 0.113198 4.92627 0.112979 5.12031V8.16973C0.112718 8.26601 0.131456 8.36139 0.168119 8.45042C0.204782 8.53944 0.25865 8.62036 0.326637 8.68853C0.394624 8.7567 0.475393 8.81079 0.564318 8.84769C0.653242 8.8846 0.748575 8.90359 0.844853 8.90359C0.941132 8.90359 1.03646 8.8846 1.12539 8.84769C1.21431 8.81079 1.29508 8.7567 1.36307 8.68853C1.43106 8.62036 1.48492 8.53944 1.52159 8.45042C1.55825 8.36139 1.57699 8.26601 1.57673 8.16973V5.12031C1.57651 4.92627 1.49933 4.74024 1.36212 4.60304C1.22492 4.46583 1.03889 4.38865 0.84485 4.38843ZM9.38324 4.38843C9.1892 4.38865 9.00317 4.46583 8.86596 4.60304C8.72876 4.74024 8.65158 4.92627 8.65136 5.12031V8.16973C8.6511 8.26601 8.66984 8.36139 8.7065 8.45042C8.74316 8.53944 8.79703 8.62036 8.86502 8.68853C8.933 8.7567 9.01377 8.81079 9.1027 8.84769C9.19162 8.8846 9.28695 8.90359 9.38323 8.90359C9.47951 8.90359 9.57484 8.8846 9.66377 8.84769C9.75269 8.81079 9.83346 8.7567 9.90145 8.68853C9.96944 8.62036 10.0233 8.53944 10.06 8.45042C10.0966 8.36139 10.1154 8.26601 10.1151 8.16973V5.12031C10.1149 4.92627 10.0377 4.74024 9.90051 4.60304C9.7633 4.46583 9.57727 4.38865 9.38324 4.38843Z" fill="white"/>
</svg>
