<svg width="14" height="14" viewBox="0 0 14 14" fill="none" xmlns="http://www.w3.org/2000/svg">
<g clip-path="url(#clip0_8403_4784)">
<path d="M9.09901 1.94968L9.61982 1.02063C9.6265 1.00871 9.63077 0.995591 9.63238 0.982022C9.63399 0.968453 9.63292 0.954699 9.62921 0.941546C9.62551 0.928393 9.61925 0.916098 9.6108 0.905363C9.60234 0.894628 9.59186 0.885664 9.57994 0.878981C9.55587 0.865486 9.52742 0.862105 9.50086 0.869583C9.47429 0.877062 9.45179 0.894786 9.43829 0.918858L8.91172 1.8582C8.46722 1.66079 7.98662 1.55767 7.50026 1.55534C7.0139 1.55301 6.53234 1.65153 6.08597 1.84467L5.5684 0.90032C5.55514 0.876121 5.5328 0.858181 5.50631 0.850449C5.47982 0.842717 5.45134 0.845825 5.42714 0.859089C5.40294 0.872353 5.38501 0.894688 5.37727 0.921179C5.36954 0.94767 5.37265 0.976148 5.38591 1.00035L5.89781 1.93435C5.40513 2.17427 4.98805 2.54525 4.69231 3.00658C4.39657 3.46792 4.23359 4.00179 4.22126 4.54964L10.7504 4.58092C10.7434 4.03297 10.5855 3.49756 10.2942 3.03341C10.0029 2.56927 9.58937 2.19431 9.09901 1.94968ZM5.9848 3.36339C5.93088 3.36313 5.87824 3.34689 5.83355 3.31672C5.78886 3.28654 5.75412 3.2438 5.73372 3.19388C5.71333 3.14396 5.70819 3.08912 5.71896 3.03628C5.72974 2.98345 5.75594 2.93499 5.79425 2.89705C5.83256 2.8591 5.88126 2.83337 5.9342 2.8231C5.98714 2.81283 6.04193 2.8185 6.09165 2.83937C6.14137 2.86024 6.18378 2.89539 6.21352 2.94037C6.24326 2.98535 6.259 3.03814 6.25874 3.09206C6.25832 3.16434 6.22923 3.2335 6.17788 3.28437C6.12652 3.33524 6.05708 3.36365 5.9848 3.36339ZM8.99832 3.37782C8.94439 3.37757 8.89176 3.36132 8.84707 3.33115C8.80238 3.30098 8.76764 3.25823 8.74724 3.20832C8.72684 3.1584 8.72171 3.10355 8.73248 3.05072C8.74325 2.99788 8.76945 2.94943 8.80776 2.91148C8.84607 2.87354 8.89478 2.8478 8.94771 2.83754C9.00065 2.82727 9.05544 2.83293 9.10516 2.8538C9.15488 2.87468 9.19729 2.90983 9.22704 2.95481C9.25678 2.99978 9.27252 3.05257 9.27226 3.10649C9.27183 3.17878 9.24275 3.24794 9.19139 3.2988C9.14004 3.34967 9.0706 3.37809 8.99832 3.37782ZM4.1973 9.53986C4.1963 9.74918 4.27849 9.95033 4.4258 10.0991C4.5731 10.2478 4.77345 10.3319 4.98278 10.3329L5.50653 10.3354L5.4988 11.9498C5.49808 12.0461 5.51636 12.1415 5.55259 12.2307C5.58883 12.3199 5.64231 12.4011 5.70997 12.4696C5.77763 12.5381 5.85814 12.5926 5.94688 12.6299C6.03563 12.6672 6.13087 12.6867 6.22715 12.6871C6.32343 12.6876 6.41885 12.6691 6.50795 12.6326C6.59705 12.5961 6.67808 12.5424 6.74639 12.4746C6.8147 12.4067 6.86896 12.3261 6.90605 12.2372C6.94314 12.1484 6.96233 12.0531 6.96253 11.9568L6.97026 10.3424L7.94604 10.3471L7.93831 11.9615C7.93759 12.0577 7.95587 12.1532 7.9921 12.2424C8.02834 12.3316 8.08182 12.4128 8.14948 12.4813C8.21714 12.5498 8.29765 12.6043 8.38639 12.6416C8.47514 12.6789 8.57038 12.6984 8.66666 12.6988C8.76294 12.6993 8.85836 12.6807 8.94746 12.6443C9.03656 12.6078 9.11759 12.5541 9.1859 12.4862C9.25421 12.4184 9.30847 12.3377 9.34556 12.2489C9.38265 12.1601 9.40184 12.0648 9.40204 11.9685L9.40977 10.3541L9.93355 10.3566C10.1429 10.3576 10.344 10.2754 10.4927 10.1281C10.6415 9.98081 10.7256 9.78046 10.7266 9.57114L10.7492 4.83919L4.21997 4.80792L4.1973 9.53986ZM3.21606 4.67754C3.02202 4.67683 2.83563 4.75312 2.69776 4.88967C2.5599 5.02621 2.48184 5.21187 2.48069 5.4059L2.46608 8.45529C2.46536 8.55157 2.48364 8.64704 2.51988 8.73624C2.55611 8.82544 2.60959 8.90661 2.67725 8.9751C2.74491 9.0436 2.82542 9.09808 2.91417 9.1354C3.00291 9.17273 3.09815 9.19219 3.19443 9.19265C3.29071 9.19311 3.38613 9.17457 3.47523 9.13809C3.56433 9.10161 3.64536 9.04791 3.71367 8.98007C3.78198 8.91222 3.83624 8.83157 3.87333 8.74272C3.91042 8.65387 3.92961 8.55858 3.92981 8.4623L3.94442 5.41291C3.94513 5.21888 3.86884 5.03248 3.7323 4.89462C3.59575 4.75676 3.41009 4.67869 3.21606 4.67754ZM11.7543 4.71844C11.5603 4.71773 11.3739 4.79402 11.236 4.93056C11.0982 5.06711 11.0201 5.25277 11.019 5.4468L11.0044 8.49619C11.0036 8.59246 11.0219 8.68794 11.0582 8.77714C11.0944 8.86633 11.1479 8.94751 11.2155 9.016C11.2832 9.0845 11.3637 9.13897 11.4524 9.1763C11.5412 9.21363 11.6364 9.23309 11.7327 9.23355C11.829 9.23401 11.9244 9.21547 12.0135 9.17899C12.1026 9.14251 12.1836 9.08881 12.252 9.02097C12.3203 8.95312 12.3745 8.87247 12.4116 8.78362C12.4487 8.69477 12.4679 8.59948 12.4681 8.5032L12.4827 5.45381C12.4834 5.25978 12.4071 5.07338 12.2706 4.93552C12.134 4.79766 11.9484 4.71959 11.7543 4.71844Z" fill="#1B1B1B"/>
</g>
<defs>
<clipPath id="clip0_8403_4784">
<rect width="12.9111" height="12.9111" fill="white" transform="translate(1.05043 0.287109) rotate(0.27445)"/>
</clipPath>
</defs>
</svg>
