<svg width="11" height="13" viewBox="0 0 11 13" fill="none" xmlns="http://www.w3.org/2000/svg">
<path d="M8.88585 6.85574C8.9034 8.75206 10.5496 9.38319 10.5677 9.39126C10.5538 9.43564 10.3048 10.2906 9.70056 11.1735C9.17827 11.9369 8.6361 12.6974 7.78225 12.7133C6.94323 12.7287 6.67341 12.2157 5.71405 12.2157C4.755 12.2157 4.45532 12.6974 3.66099 12.7287C2.83669 12.7599 2.20899 11.9031 1.68236 11.1426C0.606297 9.58684 -0.216081 6.7463 0.888122 4.82889C1.43664 3.8767 2.41708 3.27381 3.48114 3.25828C4.2905 3.24284 5.05448 3.80276 5.54924 3.80276C6.04369 3.80276 6.97208 3.12937 7.94808 3.22822C8.3567 3.24527 9.50357 3.39324 10.24 4.47132C10.1808 4.50813 8.87163 5.27029 8.88585 6.85574ZM7.30898 2.19906C7.74655 1.6694 8.04108 0.931856 7.96079 0.198242C7.32996 0.22356 6.5672 0.618559 6.1148 1.14802C5.70931 1.61675 5.35426 2.36721 5.44998 3.0863C6.15313 3.14077 6.87131 2.72902 7.30898 2.19906Z" fill="white"/>
</svg>
