<svg width="13" height="14" viewBox="0 0 13 14" fill="none" xmlns="http://www.w3.org/2000/svg">
<g clip-path="url(#clip0_8403_4779)">
<path d="M9.89572 7.2998C9.90419 9.19618 11.5473 9.83519 11.5654 9.84335C11.5513 9.88766 11.2982 10.7414 10.6897 11.6214C10.1638 12.3823 9.61799 13.1402 8.76407 13.1521C7.92499 13.1634 7.65763 12.6491 6.69828 12.6445C5.73924 12.6399 5.43726 13.1202 4.64278 13.1476C3.81835 13.175 3.19476 12.3151 2.67177 11.5521C1.60318 9.99121 0.794415 7.14676 1.90779 5.23467C2.46087 4.28511 3.44418 3.68693 4.5083 3.67649C5.31773 3.66494 6.07901 4.22851 6.57377 4.23088C7.06821 4.23325 7.99982 3.56431 8.97533 3.66783C9.38386 3.68684 10.53 3.8403 11.2613 4.92189C11.2019 4.95843 9.88909 5.71431 9.89572 7.2998ZM8.34117 2.63562C8.78127 2.10807 9.07933 1.37194 9.00256 0.637951C8.37161 0.660247 7.60697 1.05159 7.15204 1.57887C6.74431 2.04566 6.38567 2.79441 6.47794 3.51395C7.18083 3.57178 7.90097 3.16348 8.34117 2.63562Z" fill="#1B1B1B"/>
</g>
<defs>
<clipPath id="clip0_8403_4779">
<rect width="12.9111" height="12.9111" fill="white" transform="translate(0.0525665 0.405273) rotate(0.27445)"/>
</clipPath>
</defs>
</svg>
