<svg width="18" height="18" viewBox="0 0 18 18" fill="none" xmlns="http://www.w3.org/2000/svg">
<path d="M0 6.0375C0 3.90191 0 2.83411 0.4222 2.02135C0.777983 1.33643 1.33643 0.777983 2.02135 0.4222C2.83411 0 3.90191 0 6.0375 0H11.9625C14.0981 0 15.1659 0 15.9787 0.4222C16.6636 0.777983 17.222 1.33643 17.5778 2.02135C18 2.83411 18 3.90191 18 6.0375V11.9625C18 14.0981 18 15.1659 17.5778 15.9787C17.222 16.6636 16.6636 17.222 15.9787 17.5778C15.1659 18 14.0981 18 11.9625 18H6.0375C3.90191 18 2.83411 18 2.02135 17.5778C1.33643 17.222 0.777983 16.6636 0.4222 15.9787C0 15.1659 0 14.0981 0 11.9625V6.0375Z" fill="#1265BF"/>
<path d="M4.04013 5.58979C4.90252 5.58979 5.60163 4.89068 5.60163 4.02829C5.60163 3.1659 4.90252 2.4668 4.04013 2.4668C3.17774 2.4668 2.47864 3.1659 2.47864 4.02829C2.47864 4.89068 3.17774 5.58979 4.04013 5.58979Z" fill="white"/>
<path d="M7.03169 6.74378H9.6196V7.92932C9.6196 7.92932 10.3219 6.52479 12.2326 6.52479C13.9371 6.52479 15.3491 7.36445 15.3491 9.92382V15.3208H12.6673V10.5778C12.6673 9.06801 11.8612 8.90195 11.247 8.90195C9.97231 8.90195 9.75409 10.0015 9.75409 10.7747V15.3208H7.03169V6.74378Z" fill="white"/>
<path d="M2.67894 6.74378H5.40133V15.3208H2.67894V6.74378Z" fill="white"/>
</svg>
