<svg width="18" height="18" viewBox="0 0 18 18" fill="none" xmlns="http://www.w3.org/2000/svg">
<rect width="18" height="18" rx="3" fill="white"/>
<path d="M16.2809 5.17949C16.1058 4.52895 15.5929 4.01603 14.9423 3.84089C13.7539 3.51562 8.99997 3.51562 8.99997 3.51562C8.99997 3.51562 4.24608 3.51562 3.0576 3.82838C2.41958 4.00352 1.89415 4.52895 1.71901 5.17949C1.40625 6.36796 1.40625 8.83248 1.40625 8.83248C1.40625 8.83248 1.40625 11.3095 1.71901 12.4855C1.89415 13.136 2.40707 13.6489 3.0576 13.8241C4.25859 14.1493 8.99997 14.1493 8.99997 14.1493C8.99997 14.1493 13.7539 14.1493 14.9423 13.8366C15.5929 13.6614 16.1058 13.1485 16.2809 12.498C16.5937 11.3095 16.5937 8.84499 16.5937 8.84499C16.5937 8.84499 16.6062 6.36796 16.2809 5.17949Z" fill="#FF0000"/>
<path d="M7.48621 11.0225L11.4394 8.74561L7.48621 6.46875V11.0225Z" fill="white"/>
</svg>
